<?xml version="1.0" encoding="UTF-8"?>
<svg version="1.1" xmlns="http://www.w3.org/2000/svg" width="512" height="512">
<path d="M0 0 C34.37159844 -1.06303913 66.82706714 13.0342836 91.65625 36.21875 C112.31350396 56.09696687 126.10318557 82.65580345 129.65625 111.21875 C129.82060547 112.49298828 129.82060547 112.49298828 129.98828125 113.79296875 C133.60868654 146.8593371 125.25124206 181.36607791 104.43847656 207.64794922 C82.01111296 235.27524013 52.28025375 253.91417336 16.40625 257.90625 C-11.67394288 259.83292017 -38.69543185 255.18166629 -63.34375 241.21875 C-64.79974609 240.40470703 -64.79974609 240.40470703 -66.28515625 239.57421875 C-94.36184616 222.77724706 -114.90828068 194.60209557 -123.34375 163.21875 C-131.99834202 128.38219895 -127.04918945 93.49036621 -109.29931641 62.38867188 C-91.30225191 32.5725083 -63.06132578 12.52936316 -29.68603516 3.84204102 C-19.88251589 1.46755098 -10.0373063 0.65664621 0 0 Z M-59.34375 54.21875 C-60.27445313 54.91742188 -61.20515625 55.61609375 -62.1640625 56.3359375 C-62.88335937 56.95726562 -63.60265625 57.57859375 -64.34375 58.21875 C-64.34375 58.87875 -64.34375 59.53875 -64.34375 60.21875 C-65.23513672 60.62867188 -65.23513672 60.62867188 -66.14453125 61.046875 C-77.17661196 66.925426 -85.32688869 82.80974808 -89.34375 94.21875 C-98.09690344 123.23901597 -96.88119114 150.55458741 -82.4453125 177.59375 C-79.62350926 182.61723721 -76.17691081 186.93204726 -72.34375 191.21875 C-71.33054687 192.44464844 -71.33054687 192.44464844 -70.296875 193.6953125 C-56.83503119 209.56456634 -39.24682819 219.02206891 -19.34375 224.21875 C-17.94769531 224.58806641 -17.94769531 224.58806641 -16.5234375 224.96484375 C7.23350235 230.23205518 33.31538696 223.85086883 53.78613281 211.44775391 C76.39626312 196.58882493 90.63057928 173.96224639 96.89453125 148.0078125 C101.95370609 122.84166071 96.74152637 96.70457373 82.65625 75.21875 C79.02558185 70.22278144 74.9319132 65.66667788 70.65625 61.21875 C70.17140137 60.71327637 69.68655273 60.20780273 69.18701172 59.68701172 C51.15069247 41.25952865 27.10149851 32.34908226 1.53125 31.96875 C-21.25935452 31.95377096 -41.50724822 40.49408975 -59.34375 54.21875 Z " fill="#FFFFFF" transform="translate(254.34375,126.78125)"/>
<path d="M0 0 C4.35406871 2.25548154 7.66156563 5.13483262 11.15234375 8.54296875 C12.09581665 9.44740723 12.09581665 9.44740723 13.05834961 10.37011719 C14.40798468 11.66997402 15.75265985 12.97499695 17.09277344 14.28466797 C19.29980014 16.43837258 21.52668614 18.57032688 23.75390625 20.703125 C25.26312046 22.16913128 26.77096135 23.63655283 28.27734375 25.10546875 C28.97915771 25.77731201 29.68097168 26.44915527 30.40405273 27.14135742 C36.16788546 32.84152433 40.9730963 39.11891864 43.27734375 46.98046875 C43.16757443 52.90801209 41.59713339 56.80460721 37.65234375 61.23046875 C33.6424437 64.16308222 29.12355249 65.15943406 24.21484375 65.35546875 C13.0225734 62.41013445 4.23383163 51.77510179 -3.72509766 43.84106445 C-5.53361953 42.04449531 -7.36001627 40.26748558 -9.1875 38.49023438 C-23.42373029 24.45636067 -23.42373029 24.45636067 -23.94799805 15.60668945 C-23.73417504 10.2767219 -22.47386543 6.32792479 -18.78515625 2.35546875 C-12.75999469 -1.83594799 -6.83700044 -3.31122781 0 0 Z " fill="#FFFFFF" transform="translate(399.78515625,377.64453125)"/>
<path d="M0 0 C8.11985714 6.46274344 15.44694536 13.7033546 22.8125 21 C23.62871826 21.8031665 24.44493652 22.60633301 25.28588867 23.43383789 C39.99980904 38.1266803 39.99980904 38.1266803 40.08984375 45.75390625 C39.76572294 51.33044626 38.85074602 55.1231087 35.0625 59.4375 C30.75161928 63.11442767 25.57522037 63.66684276 20.0625 63.4375 C11.94155627 61.61701554 5.79892226 54.04422453 0.0625 48.4375 C-0.8047168 47.59606445 -1.67193359 46.75462891 -2.56542969 45.88769531 C-5.03377053 43.48982265 -7.49016087 41.08015715 -9.93988037 38.66326904 C-10.93044205 37.68715987 -11.92312907 36.71320234 -12.91802979 35.74151611 C-26.32295279 22.62140903 -26.32295279 22.62140903 -27.03125 13.484375 C-26.82892722 9.06699426 -25.50779878 5.2618177 -22.609375 1.89453125 C-15.33226694 -4.63571572 -8.25490402 -4.39090639 0 0 Z " fill="#FFFFFF" transform="translate(95.9375,72.5625)"/>
<path d="M0 0 C3.45370725 3.87233843 4.84876905 7.63318539 5.5 12.75 C4.5619994 20.38800492 0.33985345 25.62685296 -5.05859375 30.82421875 C-5.6403688 31.40033401 -6.22214386 31.97644928 -6.82154846 32.57002258 C-8.66342242 34.38973411 -10.5187354 36.19498271 -12.375 38 C-13.61616241 39.22106261 -14.85640516 40.44306077 -16.09570312 41.66601562 C-18.37644772 43.91428975 -20.66237485 46.15698451 -22.95483398 48.39331055 C-24.87817352 50.27028321 -26.78433406 52.16023743 -28.68383789 54.06176758 C-33.26597192 58.63794499 -37.57981123 61.83227475 -43.9375 63.3125 C-49.40681699 63.21820143 -52.72741577 61.77412481 -56.9375 58.3125 C-60.39912481 54.10241577 -61.84320143 50.78181699 -61.9375 45.3125 C-59.19459931 33.55721133 -48.58456104 24.62464588 -40.29858398 16.4128418 C-38.86525446 14.990328 -37.44306285 13.55729409 -36.02148438 12.12304688 C-25.56894747 1.69960541 -15.0913416 -8.66949411 0 0 Z " fill="#FFFFFF" transform="translate(130.9375,379.6875)"/>
<path d="M0 0 C3.79622087 3.79622087 4.93237702 6.51699485 5.0625 11.875 C5.12244141 13.21304688 5.12244141 13.21304688 5.18359375 14.578125 C3.73833276 22.46136674 -2.57913354 28.28582437 -8.0546875 33.73828125 C-9.15117111 34.84262764 -9.15117111 34.84262764 -10.26980591 35.96928406 C-11.80744964 37.51331422 -13.34892834 39.0535339 -14.89404297 40.59008789 C-17.24850889 42.9360143 -19.58365738 45.3000534 -21.91796875 47.66601562 C-23.42074351 49.17040196 -24.92461326 50.67369544 -26.4296875 52.17578125 C-27.46752884 53.23047356 -27.46752884 53.23047356 -28.52633667 54.30647278 C-33.14332482 58.85823618 -37.33958429 62.35597229 -44.0703125 62.8046875 C-50.45504159 62.00403015 -54.30322978 61.04206526 -58.625 56 C-61.10610515 51.21501149 -62.3158202 46.74511332 -60.7175293 41.44458008 C-58.29140403 35.92367332 -55.41618254 31.89507552 -51.1875 27.625 C-50.58671631 27.00125488 -49.98593262 26.37750977 -49.36694336 25.73486328 C-47.38269565 23.68505617 -45.37956593 21.65492829 -43.375 19.625 C-41.89052105 18.10166379 -40.4061484 16.57822399 -38.921875 15.0546875 C-37.42851838 13.53504677 -35.93375244 12.01678956 -34.4375 10.5 C-33.39203003 9.43458984 -33.39203003 9.43458984 -32.32543945 8.34765625 C-23.25993185 -0.72978394 -12.09755776 -9.48425038 0 0 Z " fill="#FFFFFF" transform="translate(437.375,73.375)"/>
<path d="M0 0 C4.10636167 1.80279293 6.34850288 4.8938826 8 9 C8.26069641 11.68051147 8.26069641 11.68051147 8.2746582 14.77490234 C8.28895622 16.51723648 8.28895622 16.51723648 8.30354309 18.29476929 C8.30263168 19.5458548 8.30172028 20.79694031 8.30078125 22.0859375 C8.30506638 23.37561432 8.3093515 24.66529114 8.31376648 25.99404907 C8.3212201 28.72263705 8.32094413 31.45109563 8.31567383 34.1796875 C8.3098863 37.66550723 8.32679625 41.15079437 8.3500185 44.63652611 C8.36835158 47.97385164 8.36456935 51.31106195 8.36328125 54.6484375 C8.372491 55.89547455 8.38170074 57.1425116 8.39118958 58.42733765 C8.33321286 69.29762039 8.33321286 69.29762039 5 74 C-0.15828478 78.65503748 -3.35291355 79.34767969 -10.16796875 79.28515625 C-15.2041108 78.77806884 -18.40000628 76.70665997 -21.875 73 C-24.01143144 69.20189966 -24.13476449 65.62200506 -24.17700195 61.31689453 C-24.18983719 60.17535919 -24.20267242 59.03382385 -24.21589661 57.85769653 C-24.22328354 56.6284848 -24.23067047 55.39927307 -24.23828125 54.1328125 C-24.246353 52.86533173 -24.25442474 51.59785095 -24.26274109 50.29196167 C-24.27656987 47.6104569 -24.28759031 44.92907455 -24.29516602 42.24755859 C-24.30623329 38.82218705 -24.34064924 35.39746458 -24.38033772 31.97232246 C-24.41284666 28.6925506 -24.41728529 25.41272091 -24.42578125 22.1328125 C-24.44328934 20.90764923 -24.46079742 19.68248596 -24.47883606 18.42019653 C-24.46248593 12.00526314 -24.44246271 7.8165972 -20 3 C-14.28116546 -1.61417077 -6.9333306 -0.82285682 0 0 Z " fill="#FFFFFF" transform="translate(264,0)"/>
<path d="M0 0 C1.26465088 -0.00287018 2.52930176 -0.00574036 3.83227539 -0.00869751 C6.50210603 -0.01073608 9.17110845 -0.00673851 11.84082031 0.00732422 C15.25039235 0.02441583 18.65925579 0.01456664 22.06880188 -0.00339317 C25.33755944 -0.01688473 28.60623317 -0.0074186 31.875 0 C33.09388916 -0.00607269 34.31277832 -0.01214539 35.56860352 -0.0184021 C42.83331866 0.04178679 47.7752198 0.44697598 53.28125 5.5859375 C55.41396652 9.20753159 55.52794615 12.31328621 55.4375 16.3984375 C55.46070313 17.44644531 55.46070313 17.44644531 55.484375 18.515625 C55.45820836 21.98270502 55.04729673 24.21199022 53.28125 27.2109375 C46.74894214 33.30775817 40.11182846 32.83832658 31.62109375 32.796875 C29.68726585 32.80118027 29.68726585 32.80118027 27.71437073 32.80557251 C24.9934707 32.80998099 22.27286734 32.80361196 19.55200195 32.78955078 C16.07283442 32.77244212 12.59436041 32.78231921 9.11521816 32.80026817 C5.78378837 32.81374159 2.45254321 32.80429729 -0.87890625 32.796875 C-2.74779259 32.80598404 -2.74779259 32.80598404 -4.6544342 32.8152771 C-5.81591476 32.80582062 -6.97739532 32.79636414 -8.17407227 32.78662109 C-9.70246483 32.78304092 -9.70246483 32.78304092 -11.26173401 32.77938843 C-15.79436793 32.16287455 -18.33960996 30.22172893 -21.3125 26.8359375 C-24.847565 21.91209697 -24.76648569 17.33431684 -24.0625 11.3984375 C-22.46664506 7.17492485 -20.49656185 4.38762503 -16.77392578 1.81982422 C-11.22162938 -0.30657163 -5.89635334 -0.02937654 0 0 Z " fill="#FFFFFF" transform="translate(457.0625,239.6015625)"/>
<path d="M0 0 C3.87850945 2.67801843 6.13291589 5.33624767 7.625 9.8125 C7.72825517 11.66693107 7.77352211 13.52481941 7.78613281 15.38208008 C7.79574036 16.52369095 7.8053479 17.66530182 7.81524658 18.84150696 C7.81949646 20.07587997 7.82374634 21.31025299 7.828125 22.58203125 C7.83382507 23.85092697 7.83952515 25.11982269 7.84539795 26.4271698 C7.85485201 29.11465033 7.86174671 31.80201909 7.86523438 34.48950195 C7.87071164 37.92263066 7.89472702 41.35536127 7.92320633 44.78836536 C7.94638392 48.07372361 7.94828593 51.3591027 7.953125 54.64453125 C7.9654718 55.87283157 7.9778186 57.1011319 7.99053955 58.36665344 C7.96252834 69.11031536 7.96252834 69.11031536 4.625 73.8125 C0.17461661 77.6545576 -3.12322902 78.3594366 -8.9375 78.3125 C-10.21753906 78.3228125 -11.49757812 78.333125 -12.81640625 78.34375 C-16.96855579 77.72389013 -18.50543424 76.83840414 -21.375 73.8125 C-25.48515666 67.90562838 -24.8249393 61.43978054 -24.80859375 54.53125 C-24.8138356 53.24440308 -24.81907745 51.95755615 -24.82447815 50.63171387 C-24.83338548 47.91502028 -24.83101306 45.19862105 -24.82104492 42.48193359 C-24.80954832 39.0116889 -24.82978748 35.54246078 -24.85896206 32.07234955 C-24.88178418 28.74609674 -24.87485533 25.42007913 -24.87109375 22.09375 C-24.88232773 20.85298706 -24.89356171 19.61222412 -24.90513611 18.3338623 C-24.81883062 7.64884399 -24.81883062 7.64884399 -20.375 2.8125 C-14.59180981 -2.26969744 -7.07112574 -2.48798869 0 0 Z " fill="#FFFFFF" transform="translate(264.375,434.1875)"/>
<path d="M0 0 C1.82614334 -0.00430527 1.82614334 -0.00430527 3.68917847 -0.00869751 C6.25258858 -0.01073188 8.81601443 -0.00524611 11.37939453 0.00732422 C15.29885537 0.02341356 19.21728937 0.00743876 23.13671875 -0.01171875 C25.63281477 -0.00973675 28.12891015 -0.00589398 30.625 0 C31.79386749 -0.00607269 32.96273499 -0.01214539 34.16702271 -0.0184021 C44.37603338 0.06977256 44.37603338 0.06977256 49.1796875 3.3984375 C53.83472498 8.55672228 54.52736719 11.75135105 54.46484375 18.56640625 C53.95775634 23.6025483 51.88634747 26.79844378 48.1796875 30.2734375 C44.37213704 32.41518464 40.79653515 32.53028927 36.48071289 32.55957031 C34.76356834 32.57398163 34.76356834 32.57398163 33.01173401 32.58868408 C31.16321083 32.5950589 31.16321083 32.5950589 29.27734375 32.6015625 C28.0074913 32.60726257 26.73763885 32.61296265 25.42930603 32.61883545 C22.74360572 32.62828085 20.05801704 32.63518045 17.37231445 32.63867188 C13.93799586 32.64416012 10.50407301 32.66820436 7.06987858 32.69664383 C3.78489709 32.71978706 0.49989535 32.72172034 -2.78515625 32.7265625 C-4.63064308 32.7450827 -4.63064308 32.7450827 -6.51341248 32.76397705 C-7.66132767 32.76097595 -8.80924286 32.75797485 -9.99194336 32.75488281 C-10.99913925 32.75852844 -12.00633514 32.76217407 -13.04405212 32.76593018 C-17.38451109 32.19138504 -19.99468663 30.19013354 -23.1015625 27.2109375 C-25.31240822 23.59318996 -25.41140328 20.51270423 -25.3203125 16.3984375 C-25.34351562 15.35042969 -25.34351562 15.35042969 -25.3671875 14.28125 C-25.34160619 10.89172594 -24.91360356 8.56978843 -23.2890625 5.5859375 C-16.53157524 -0.40170944 -8.55232993 -0.0445869 0 0 Z " fill="#FFFFFF" transform="translate(24.8203125,239.6015625)"/>
</svg>
